<?xml version="1.0" encoding="UTF-8"?>
<svg enable-background="new 0 0 128 128" version="1.1" viewBox="0 0 64 64" xml:space="preserve" xmlns="http://www.w3.org/2000/svg">
  <style>.st0{fill:url(#path2995-1-0_1_)}</style>
 <linearGradient id="path2995-1-0_1_" x1="-683.3" x2="-693.3" y1="534.84" y2="511.51" gradientTransform="matrix(6,0,0,-6,4255,3247)" gradientUnits="userSpaceOnUse">
  <stop stop-color="#25d366" offset="0"/>
  <stop stop-color="#189647" offset="1"/>
 </linearGradient>
  <g transform="scale(.5)">
    <circle cx="64" cy="64" r="64" fill="url(#path2995-1-0_1_)"/>
    <path d="m92.346 35.49c-7.522-7.53-17.523-11.678-28.179-11.683-21.954 0-39.826 17.868-39.833 39.831-4e-3 7.022 1.831 13.875 5.316 19.913l-5.65 20.642 21.115-5.538c5.819 3.171 12.369 4.844 19.036 4.847h0.017c21.954 0 39.823-17.871 39.832-39.833 5e-3 -10.642-4.136-20.65-11.654-28.179m-28.178 61.284h-0.013c-5.943-2e-3 -11.769-1.598-16.853-4.614l-1.209-0.718-12.53 3.287 3.343-12.216-0.787-1.256c-3.315-5.27-5.066-11.361-5.062-17.619 6e-3 -18.253 14.859-33.104 33.121-33.104 8.844 2e-3 17.155 3.451 23.407 9.71 6.251 6.258 9.691 14.575 9.689 23.422-6e-3 18.256-14.859 33.108-33.106 33.108m18.16-24.795c-0.996-0.499-5.889-2.904-6.802-3.239-0.913-0.332-1.574-0.497-2.238 0.499s-2.571 3.239-3.153 3.903c-0.58 0.664-1.16 0.748-2.156 0.249s-4.202-1.549-8.001-4.941c-2.96-2.637-4.958-5.899-5.538-6.895s-0.062-1.533 0.437-2.03c0.448-0.446 0.996-1.162 1.493-1.744s0.663-0.997 0.995-1.66c0.332-0.664 0.167-1.245-0.083-1.743-0.25-0.499-2.24-5.398-3.068-7.391-0.809-1.941-1.629-1.678-2.239-1.708-0.582-0.028-1.245-0.036-1.908-0.036s-1.742 0.249-2.654 1.246c-0.911 0.996-3.483 3.403-3.483 8.304 0 4.898 3.566 9.632 4.064 10.295s7.018 10.718 17.002 15.029c2.374 1.024 4.229 1.637 5.674 2.097 2.384 0.759 4.554 0.65 6.27 0.394 1.912-0.285 5.888-2.407 6.719-4.732 0.829-2.324 0.829-4.316 0.578-4.732-0.251-0.417-0.915-0.666-1.909-1.165" fill="#fff"/>
  </g>
</svg>
