<?xml version="1.0" encoding="UTF-8"?>
<svg version="1.1" viewBox="0 0 64 64" xmlns="http://www.w3.org/2000/svg">
 <style>.st0{fill:url(#path2995-1-0_1_)}.st1{fill:#c8daea}.st2{fill:#a9c9dd}.st3{fill:url(#path2991_1_)}</style>
 <linearGradient id="path2995-1-0_1_" x1="-683.3" x2="-693.3" y1="534.84" y2="511.51" gradientTransform="matrix(6,0,0,-6,4255,3247)" gradientUnits="userSpaceOnUse">
  <stop stop-color="#37aee2" offset="0"/>
  <stop stop-color="#1e96c8" offset="1"/>
 </linearGradient>
 <linearGradient id="path2991_1_" x1="128.99" x2="153.99" y1="118.24" y2="78.245" gradientTransform="matrix(1,0,0,-1,0,242)" gradientUnits="userSpaceOnUse">
  <stop stop-color="#eff7fc" offset="0"/>
  <stop stop-color="#fff" offset="1"/>
 </linearGradient>
 <g transform="scale(.26667)">
  <path class="st0" d="m240 120c0 66.3-53.7 120-120 120s-120-53.7-120-120 53.7-120 120-120 120 53.7 120 120z" fill="url(#path2995-1-0_1_)"/>
  <path class="st1" d="m98 175c-3.9 0-3.2-1.5-4.6-5.2l-11.4-37.6 70.8-44.2 8.3 2.2-6.9 18.8z"/>
  <path class="st2" d="m98 175c3 0 4.3-1.4 6-3 2.6-2.5 36-35 36-35l-20.5-5-19 12-2.5 30z"/>
  <path class="st3" d="m100 144.4 48.4 35.7c5.5 3 9.5 1.5 10.9-5.1l19.7-92.8c2-8.1-3.1-11.7-8.4-9.3l-115.6 44.6c-7.9 3.2-7.8 7.6-1.4 9.5l29.7 9.3 68.7-43.3c3.2-2 6.2-0.9 3.8 1.3z" fill="url(#path2991_1_)"/>
 </g>
</svg>
