<svg version="1.1" viewBox="0 0 64 64" xmlns="http://www.w3.org/2000/svg"><style>.st0{fill:url(#a)}.st1{fill:#c8daea}.st2{fill:#a9c9dd}.st3{fill:url(#b)}</style><linearGradient id="a" x1="-683.3" x2="-693.3" y1="534.84" y2="511.51" gradientTransform="matrix(1.6 0 0 -1.6 1134.7 865.88)" gradientUnits="userSpaceOnUse"><stop stop-color="#37aee2" offset="0"/><stop stop-color="#1e96c8" offset="1"/></linearGradient><linearGradient id="b" x1="128.99" x2="153.99" y1="118.24" y2="78.245" gradientTransform="matrix(.26667 0 0 -.26667 0 64.534)" gradientUnits="userSpaceOnUse"><stop stop-color="#eff7fc" offset="0"/><stop stop-color="#fff" offset="1"/></linearGradient><path class="st0" d="m64.001 32c0 17.68-14.32 32-32 32s-32-14.32-32-32 14.32-32 32-32 32 14.32 32 32z" fill="url(#a)" style="fill:#0e2258;stroke-width:.26667"/><path d="m50.01 41.244-1.6407 7.1131c-0.23047 1.0056-1.1142 1.7091-2.1495 1.7091-17.803-0.0014-32.283-14.482-32.283-32.286 0-1.0345 0.70348-1.9194 1.7091-2.1487l7.1131-1.6407c1.0359-0.24006 2.0944 0.29765 2.5249 1.2787l3.2827 7.6565c0.38374 0.90184 0.1249 1.9526-0.63368 2.5721l-3.7993 3.0506c2.3978 4.8846 6.3693 8.8561 11.255 11.255l3.1106-3.7965c0.61308-0.76071 1.6717-1.0239 2.5736-0.63333l7.6565 3.282c0.92089 0.48444 1.5207 1.557 1.2808 2.5873z" style="fill:#fff;stroke-width:.070566"/></svg>
